<svg xmlns="http://www.w3.org/2000/svg" width="31.828" height="30.828" viewBox="0 0 31.828 30.828"><g transform="translate(-476.086 -1263.086)"><path d="M298.332,512.708a8.359,8.359,0,0,1-4.467-7.161c-.285-5.557-3.064-9.547-6.7-9.547s-6.412,3.99-6.7,9.547A8.359,8.359,0,0,1,276,512.708a.7.7,0,0,0,.32,1.317h7.105c.023,1.7,1.688,3.064,3.74,3.064s3.716-1.369,3.739-3.064h7.105a.7.7,0,0,0,.32-1.317Z" transform="translate(203.833 771.06)" fill="#f2f0c9"/><line x2="28" y2="27" transform="translate(477.5 1265.5)" fill="none" stroke="#f2f0c9" stroke-linecap="round" stroke-width="2"/><line x2="28" y2="27" transform="translate(478.5 1264.5)" fill="none" stroke="#bc2b35" stroke-linecap="round" stroke-width="2"/></g></svg>